<svg width="148" height="16" viewBox="0 0 148 16" fill="none" xmlns="http://www.w3.org/2000/svg">
<path d="M104.356 0H107.618L113.155 10.2052V0H116.416V15.9439H113.155L107.618 5.73862V15.9439H104.357L104.356 0ZM119.941 0H129.811V2.7912H123.269V6.49846H128.807V9.28917H123.267V13.1522H129.898V15.9434H119.941V0ZM135.306 2.7912H131.147V0H142.813V2.7912H138.676V15.9439H135.305L135.306 2.7912ZM144.631 12.817H148.001V15.9434H144.631V12.817ZM0.000954792 0.435291H3.28177V6.76253H7.7567V0.436265H11.039V15.9617H7.7567V9.4807H3.28177V15.9617H0L0.000954792 0.435291ZM14.7066 0.435291H24.3178V3.15201H17.9457V6.76109H23.337V9.47925H17.9457V13.2407H24.4026V15.9588H14.7061L14.7066 0.435291ZM27.3023 0.435291H33.3117C35.1657 0.435291 36.1033 0.696466 36.8917 1.39197C37.7018 2.10972 38.128 3.2618 38.128 4.67505C38.128 6.15408 37.7445 7.13205 36.8481 7.84932C37.2122 8.11959 37.529 8.45053 37.7852 8.82824C38.2349 9.68129 38.4479 10.6433 38.4015 11.6108C38.4015 13.2417 37.9327 14.416 36.995 15.155C36.2067 15.7417 35.3117 15.9593 33.5853 15.9593H27.3018L27.3023 0.435291ZM33.0776 6.74078C34.3774 6.74078 34.8893 6.21938 34.8893 4.91495C34.8893 3.58875 34.3779 3.08817 33.0776 3.08817H30.5651V6.74078H33.0776ZM33.3544 13.3089C34.6343 13.3089 35.1444 12.744 35.1444 11.352C35.1444 9.93874 34.6329 9.39509 33.3544 9.39509H30.5628V13.3089H33.3544ZM41.0703 0.437225H50.681V3.15201H44.3094V6.76109H49.7007V9.47925H44.3094V13.2407H50.7663V15.9588H41.0703V0.437225ZM53.6651 0.437225H56.9473V13.2436H63.3616V15.9617H53.6651V0.437225ZM65.5161 0.437225H68.7979V15.9627H65.5161V0.437225ZM74.7229 13.0482L73.8284 15.9617H70.2906L75.7895 0.436265H78.9655L84.4843 15.9617H80.9252L80.0521 13.0482H74.7229ZM77.4083 4.35101L75.5122 10.3968H79.2628L77.4083 4.35101ZM85.9121 0.437225H89.0882L94.4776 10.3731V0.436265H97.6536V15.9617H94.4776L89.0863 6.02544V15.9617H85.9102L85.9121 0.437225Z" fill="white"/>
</svg>
